<svg width="309.2" height="70" viewBox="0 0 309.2 70" xmlns="http://www.w3.org/2000/svg"><g id="svgGroup" stroke-linecap="round" fill-rule="evenodd" font-size="9pt" stroke="#000" stroke-width="0.25mm" fill="#000" style="stroke:#000;stroke-width:0.25mm;fill:#000"><path d="M 29.3 37.8 L 8.7 37.8 L 8.7 70 L 0 70 L 0 0 L 8.7 0 L 8.7 30.4 L 29.3 30.4 L 29.3 0 L 38 0 L 38 70 L 29.3 70 L 29.3 37.8 Z M 228.7 45.6 L 226.1 48.6 L 226.1 70 L 217.6 70 L 217.6 0 L 226.1 0 L 226.1 37.8 L 241.8 20 L 252.5 20 L 235.1 39.7 L 253.9 70 L 243.4 70 L 228.7 45.6 Z M 108.7 20 L 116.7 20 L 116.7 22.4 A 11.066 11.066 0 0 1 121.016 20.396 Q 122.709 20 124.7 20 L 129.3 20 A 27.475 27.475 0 0 1 133.744 20.335 Q 138.573 21.128 141.35 23.8 Q 145.3 27.6 145.3 36 L 145.3 70 L 136.8 70 L 136.8 34 A 8.322 8.322 0 0 0 136.574 32.005 A 5.762 5.762 0 0 0 135.05 29.25 A 5.821 5.821 0 0 0 132.053 27.671 A 8.54 8.54 0 0 0 130.3 27.5 L 123.7 27.5 Q 120.4 27.5 118.8 29.25 A 6.786 6.786 0 0 0 117.794 30.655 A 4.96 4.96 0 0 0 117.2 33 L 117.2 70 L 108.7 70 L 108.7 20 Z M 76.1 70 L 67.2 70 A 29.968 29.968 0 0 1 63.26 69.76 Q 58.903 69.18 56.449 67.202 A 8.56 8.56 0 0 1 56.15 66.95 A 8.834 8.834 0 0 1 53.853 63.602 Q 52.717 60.821 52.7 56.629 A 31.477 31.477 0 0 1 52.7 56.5 L 52.7 54.5 Q 52.7 41.316 63.264 39.346 A 22.048 22.048 0 0 1 67.3 39 L 79.7 39 L 79.7 34 A 8.114 8.114 0 0 0 79.475 32.034 A 5.485 5.485 0 0 0 77.8 29.2 Q 75.9 27.5 72.2 27.5 L 56.7 27.5 L 56.7 20 L 71.2 20 A 31.686 31.686 0 0 1 75.85 20.318 Q 78.228 20.671 80.135 21.42 A 12.469 12.469 0 0 1 84.05 23.8 Q 87.304 26.78 88.007 32.588 A 28.463 28.463 0 0 1 88.2 36 L 88.2 60 A 3.097 3.097 0 0 0 88.336 60.943 A 2.396 2.396 0 0 0 89.35 62.25 Q 90.322 62.884 92.403 62.982 A 16.974 16.974 0 0 0 93.2 63 L 93.2 70 L 87.7 70 A 4.977 4.977 0 0 1 86.426 69.824 Q 85.868 69.676 85.27 69.404 A 9.522 9.522 0 0 1 84.85 69.2 Q 83.3 68.4 82.2 67 Q 79.956 69.927 76.284 69.998 A 9.49 9.49 0 0 1 76.1 70 Z M 184.1 70 L 175.2 70 A 29.968 29.968 0 0 1 171.26 69.76 Q 166.903 69.18 164.449 67.202 A 8.56 8.56 0 0 1 164.15 66.95 A 8.834 8.834 0 0 1 161.853 63.602 Q 160.717 60.821 160.7 56.629 A 31.477 31.477 0 0 1 160.7 56.5 L 160.7 54.5 Q 160.7 41.316 171.264 39.346 A 22.048 22.048 0 0 1 175.3 39 L 187.7 39 L 187.7 34 A 8.114 8.114 0 0 0 187.475 32.034 A 5.485 5.485 0 0 0 185.8 29.2 Q 183.9 27.5 180.2 27.5 L 164.7 27.5 L 164.7 20 L 179.2 20 A 31.686 31.686 0 0 1 183.85 20.318 Q 186.228 20.671 188.135 21.42 A 12.469 12.469 0 0 1 192.05 23.8 Q 195.304 26.78 196.007 32.588 A 28.463 28.463 0 0 1 196.2 36 L 196.2 60 A 3.097 3.097 0 0 0 196.336 60.943 A 2.396 2.396 0 0 0 197.35 62.25 Q 198.322 62.884 200.403 62.982 A 16.974 16.974 0 0 0 201.2 63 L 201.2 70 L 195.7 70 A 4.977 4.977 0 0 1 194.426 69.824 Q 193.868 69.676 193.27 69.404 A 9.522 9.522 0 0 1 192.85 69.2 Q 191.3 68.4 190.2 67 Q 187.956 69.927 184.284 69.998 A 9.49 9.49 0 0 1 184.1 70 Z M 292.1 70 L 283.2 70 A 29.968 29.968 0 0 1 279.26 69.76 Q 274.903 69.18 272.449 67.202 A 8.56 8.56 0 0 1 272.15 66.95 A 8.834 8.834 0 0 1 269.853 63.602 Q 268.717 60.821 268.7 56.629 A 31.477 31.477 0 0 1 268.7 56.5 L 268.7 54.5 Q 268.7 41.316 279.264 39.346 A 22.048 22.048 0 0 1 283.3 39 L 295.7 39 L 295.7 34 A 8.114 8.114 0 0 0 295.475 32.034 A 5.485 5.485 0 0 0 293.8 29.2 Q 291.9 27.5 288.2 27.5 L 272.7 27.5 L 272.7 20 L 287.2 20 A 31.686 31.686 0 0 1 291.85 20.318 Q 294.228 20.671 296.135 21.42 A 12.469 12.469 0 0 1 300.05 23.8 Q 303.304 26.78 304.007 32.588 A 28.463 28.463 0 0 1 304.2 36 L 304.2 60 A 3.097 3.097 0 0 0 304.336 60.943 A 2.396 2.396 0 0 0 305.35 62.25 Q 306.322 62.884 308.403 62.982 A 16.974 16.974 0 0 0 309.2 63 L 309.2 70 L 303.7 70 A 4.977 4.977 0 0 1 302.426 69.824 Q 301.868 69.676 301.27 69.404 A 9.522 9.522 0 0 1 300.85 69.2 Q 299.3 68.4 298.2 67 Q 295.956 69.927 292.284 69.998 A 9.49 9.49 0 0 1 292.1 70 Z M 79.7 57.5 L 79.7 46.5 L 67.2 46.5 Q 64.6 46.5 62.9 48.2 Q 61.2 49.9 61.2 52.5 L 61.2 57.5 A 8.962 8.962 0 0 0 61.295 58.852 Q 61.404 59.564 61.638 60.13 A 3.544 3.544 0 0 0 62.4 61.3 Q 63.6 62.5 66.2 62.5 L 75.1 62.5 Q 77.414 62.5 78.419 61.667 A 2.063 2.063 0 0 0 78.9 61.1 Q 79.7 59.7 79.7 57.5 Z M 187.7 57.5 L 187.7 46.5 L 175.2 46.5 Q 172.6 46.5 170.9 48.2 Q 169.2 49.9 169.2 52.5 L 169.2 57.5 A 8.962 8.962 0 0 0 169.295 58.852 Q 169.404 59.564 169.638 60.13 A 3.544 3.544 0 0 0 170.4 61.3 Q 171.6 62.5 174.2 62.5 L 183.1 62.5 Q 185.414 62.5 186.419 61.667 A 2.063 2.063 0 0 0 186.9 61.1 Q 187.7 59.7 187.7 57.5 Z M 295.7 57.5 L 295.7 46.5 L 283.2 46.5 Q 280.6 46.5 278.9 48.2 Q 277.2 49.9 277.2 52.5 L 277.2 57.5 A 8.962 8.962 0 0 0 277.295 58.852 Q 277.404 59.564 277.638 60.13 A 3.544 3.544 0 0 0 278.4 61.3 Q 279.6 62.5 282.2 62.5 L 291.1 62.5 Q 293.414 62.5 294.419 61.667 A 2.063 2.063 0 0 0 294.9 61.1 Q 295.7 59.7 295.7 57.5 Z" vector-effect="non-scaling-stroke"/></g></svg>