<svg width="276.160009765625px" height="119.47999267578125px" xmlns="http://www.w3.org/2000/svg" viewBox="111.91999511718751 15.260003662109376 276.160009765625 119.47999267578125" style="background: none;" preserveAspectRatio="xMidYMid"><defs><filter id="editing-hole" x="-100%" y="-100%" width="300%" height="300%"><feFlood flood-color="none" result="black"></feFlood><feMorphology operator="dilate" radius="2" in="SourceGraphic" result="erode"></feMorphology><feGaussianBlur in="erode" stdDeviation="4" result="blur"></feGaussianBlur><feOffset in="blur" dx="2" dy="2" result="offset"></feOffset><feComposite operator="atop" in="offset" in2="black" result="merge"></feComposite><feComposite operator="in" in="merge" in2="SourceGraphic" result="inner-shadow"></feComposite></filter></defs><g filter="url(#editing-hole)"><g transform="translate(154.95999383926392, 97.39999961853027)"><path d="M29.76 0L24.19 0L24.19-20.61L11.01-20.61L11.01 0L5.44 0L5.44-44.80L11.01-44.80L11.01-25.34L24.19-25.34L24.19-44.80L29.76-44.80L29.76 0ZM59.20 0L59.20 0Q58.37 0 57.38-0.51L57.38-0.51L57.38-0.51Q56.38-1.02 55.68-1.92L55.68-1.92L55.68-1.92Q54.21 0 51.78 0L51.78 0L47.36 0L47.36 0Q42.50 0 40.29-1.95L40.29-1.95L40.29-1.95Q38.08-3.90 38.08-8.64L38.08-8.64L38.08-9.92L38.08-9.92Q38.08-19.84 47.42-19.84L47.42-19.84L54.08-19.84L54.08-23.04L54.08-23.04Q54.08-25.02 52.86-26.11L52.86-26.11L52.86-26.11Q51.65-27.20 49.28-27.20L49.28-27.20L40.64-27.20L40.64-32L48.64-32L48.64-32Q54.21-32 56.86-29.57L56.86-29.57L56.86-29.57Q59.52-27.14 59.52-21.76L59.52-21.76L59.52-6.40L59.52-6.40Q59.52-5.44 60.26-4.96L60.26-4.96L60.26-4.96Q60.99-4.48 62.72-4.48L62.72-4.48L62.72 0L59.20 0ZM51.14-4.80L51.14-4.80Q53.06-4.80 53.57-5.70L53.57-5.70L53.57-5.70Q54.08-6.59 54.08-8L54.08-8L54.08-15.04L47.36-15.04L47.36-15.04Q45.70-15.04 44.61-13.95L44.61-13.95L44.61-13.95Q43.52-12.86 43.52-11.20L43.52-11.20L43.52-8L43.52-8Q43.52-6.34 44.29-5.57L44.29-5.57L44.29-5.57Q45.06-4.80 46.72-4.80L46.72-4.80L51.14-4.80ZM70.40 0L70.40-32L75.52-32L75.52-30.46L75.52-30.46Q77.50-32 80.64-32L80.64-32L82.30-32L82.30-32Q87.49-32 90.02-29.57L90.02-29.57L90.02-29.57Q92.54-27.14 92.54-21.76L92.54-21.76L92.54 0L87.10 0L87.10-23.04L87.10-23.04Q87.10-24.96 85.98-26.08L85.98-26.08L85.98-26.08Q84.86-27.20 82.94-27.20L82.94-27.20L80-27.20L80-27.20Q77.89-27.20 76.86-26.08L76.86-26.08L76.86-26.08Q75.84-24.96 75.84-23.68L75.84-23.68L75.84 0L70.40 0ZM121.34 0L121.34 0Q120.51 0 119.52-0.51L119.52-0.51L119.52-0.51Q118.53-1.02 117.82-1.92L117.82-1.92L117.82-1.92Q116.35 0 113.92 0L113.92 0L109.50 0L109.50 0Q104.64 0 102.43-1.95L102.43-1.95L102.43-1.95Q100.22-3.90 100.22-8.64L100.22-8.64L100.22-9.92L100.22-9.92Q100.22-19.84 109.57-19.84L109.57-19.84L116.22-19.84L116.22-23.04L116.22-23.04Q116.22-25.02 115.01-26.11L115.01-26.11L115.01-26.11Q113.79-27.20 111.42-27.20L111.42-27.20L102.78-27.20L102.78-32L110.78-32L110.78-32Q116.35-32 119.01-29.57L119.01-29.57L119.01-29.57Q121.66-27.14 121.66-21.76L121.66-21.76L121.66-6.40L121.66-6.40Q121.66-5.44 122.40-4.96L122.40-4.96L122.40-4.96Q123.14-4.48 124.86-4.48L124.86-4.48L124.86 0L121.34 0ZM113.28-4.80L113.28-4.80Q115.20-4.80 115.71-5.70L115.71-5.70L115.71-5.70Q116.22-6.59 116.22-8L116.22-8L116.22-15.04L109.50-15.04L109.50-15.04Q107.84-15.04 106.75-13.95L106.75-13.95L106.75-13.95Q105.66-12.86 105.66-11.20L105.66-11.20L105.66-8L105.66-8Q105.66-6.34 106.43-5.57L106.43-5.57L106.43-5.57Q107.20-4.80 108.86-4.80L108.86-4.80L113.28-4.80ZM154.88 0L148.54 0L139.78-15.81L137.98-13.70L137.98 0L132.54 0L132.54-44.80L137.98-44.80L137.98-20.86L147.58-32L154.43-32L143.62-19.65L154.88 0ZM181.12 0L181.12 0Q180.29 0 179.30-0.51L179.30-0.51L179.30-0.51Q178.30-1.02 177.60-1.92L177.60-1.92L177.60-1.92Q176.13 0 173.70 0L173.70 0L169.28 0L169.28 0Q164.42 0 162.21-1.95L162.21-1.95L162.21-1.95Q160-3.90 160-8.64L160-8.64L160-9.92L160-9.92Q160-19.84 169.34-19.84L169.34-19.84L176-19.84L176-23.04L176-23.04Q176-25.02 174.78-26.11L174.78-26.11L174.78-26.11Q173.57-27.20 171.20-27.20L171.20-27.20L162.56-27.20L162.56-32L170.56-32L170.56-32Q176.13-32 178.78-29.57L178.78-29.57L178.78-29.57Q181.44-27.14 181.44-21.76L181.44-21.76L181.44-6.40L181.44-6.40Q181.44-5.44 182.18-4.96L182.18-4.96L182.18-4.96Q182.91-4.48 184.64-4.48L184.64-4.48L184.64 0L181.12 0ZM173.06-4.80L173.06-4.80Q174.98-4.80 175.49-5.70L175.49-5.70L175.49-5.70Q176-6.59 176-8L176-8L176-15.04L169.28-15.04L169.28-15.04Q167.62-15.04 166.53-13.95L166.53-13.95L166.53-13.95Q165.44-12.86 165.44-11.20L165.44-11.20L165.44-8L165.44-8Q165.44-6.34 166.21-5.57L166.21-5.57L166.21-5.57Q166.98-4.80 168.64-4.80L168.64-4.80L173.06-4.80Z" fill="#ffffff"></path></g></g><style>text {
  font-size: 64px;
  font-family: Arial Black;
  dominant-baseline: central;
  text-anchor: middle;
}</style></svg>