<svg width="61.84" height="14" viewBox="0 0 61.84 14" xmlns="http://www.w3.org/2000/svg"><g id="svgGroup" stroke-linecap="round" fill-rule="evenodd" font-size="9pt" stroke="#000" stroke-width="0.25mm" fill="#000" style="stroke:#000;stroke-width:0.25mm;fill:#000"><path d="M 5.86 7.56 L 1.74 7.56 L 1.74 14 L 0 14 L 0 0 L 1.74 0 L 1.74 6.08 L 5.86 6.08 L 5.86 0 L 7.6 0 L 7.6 14 L 5.86 14 L 5.86 7.56 Z M 45.74 9.12 L 45.22 9.72 L 45.22 14 L 43.52 14 L 43.52 0 L 45.22 0 L 45.22 7.56 L 48.36 4 L 50.5 4 L 47.02 7.94 L 50.78 14 L 48.68 14 L 45.74 9.12 Z M 21.74 4 L 23.34 4 L 23.34 4.48 A 2.213 2.213 0 0 1 24.203 4.079 Q 24.542 4 24.94 4 L 25.86 4 Q 26.893 4 27.588 4.309 A 2.346 2.346 0 0 1 28.27 4.76 Q 28.868 5.336 29.013 6.439 A 5.846 5.846 0 0 1 29.06 7.2 L 29.06 14 L 27.36 14 L 27.36 6.8 A 1.664 1.664 0 0 0 27.315 6.401 A 1.152 1.152 0 0 0 27.01 5.85 A 1.164 1.164 0 0 0 26.411 5.534 A 1.708 1.708 0 0 0 26.06 5.5 L 24.74 5.5 Q 24.301 5.5 24.013 5.655 A 0.943 0.943 0 0 0 23.76 5.85 A 1.357 1.357 0 0 0 23.559 6.131 A 0.992 0.992 0 0 0 23.44 6.6 L 23.44 14 L 21.74 14 L 21.74 4 Z M 15.22 14 L 13.44 14 A 5.994 5.994 0 0 1 12.652 13.952 Q 11.726 13.829 11.23 13.39 A 1.767 1.767 0 0 1 10.771 12.72 Q 10.543 12.164 10.54 11.326 A 6.305 6.305 0 0 1 10.54 11.3 L 10.54 10.9 Q 10.54 8.263 12.653 7.869 A 4.41 4.41 0 0 1 13.46 7.8 L 15.94 7.8 L 15.94 6.8 A 1.623 1.623 0 0 0 15.895 6.407 A 1.097 1.097 0 0 0 15.56 5.84 Q 15.256 5.568 14.723 5.514 A 2.782 2.782 0 0 0 14.44 5.5 L 11.34 5.5 L 11.34 4 L 14.24 4 Q 15.98 4 16.81 4.76 A 2.295 2.295 0 0 1 17.406 5.675 Q 17.64 6.308 17.64 7.2 L 17.64 12 A 0.619 0.619 0 0 0 17.667 12.189 A 0.479 0.479 0 0 0 17.87 12.45 Q 18.1 12.6 18.64 12.6 L 18.64 14 L 17.54 14 Q 17.316 14 17.054 13.881 A 1.904 1.904 0 0 1 16.97 13.84 Q 16.66 13.68 16.44 13.4 Q 15.991 13.985 15.257 14 A 1.899 1.899 0 0 1 15.22 14 Z M 36.82 14 L 35.04 14 A 5.994 5.994 0 0 1 34.252 13.952 Q 33.326 13.829 32.83 13.39 A 1.767 1.767 0 0 1 32.371 12.72 Q 32.143 12.164 32.14 11.326 A 6.305 6.305 0 0 1 32.14 11.3 L 32.14 10.9 Q 32.14 8.263 34.253 7.869 A 4.41 4.41 0 0 1 35.06 7.8 L 37.54 7.8 L 37.54 6.8 A 1.623 1.623 0 0 0 37.495 6.407 A 1.097 1.097 0 0 0 37.16 5.84 Q 36.856 5.568 36.323 5.514 A 2.782 2.782 0 0 0 36.04 5.5 L 32.94 5.5 L 32.94 4 L 35.84 4 Q 37.58 4 38.41 4.76 A 2.295 2.295 0 0 1 39.006 5.675 Q 39.24 6.308 39.24 7.2 L 39.24 12 A 0.619 0.619 0 0 0 39.267 12.189 A 0.479 0.479 0 0 0 39.47 12.45 Q 39.7 12.6 40.24 12.6 L 40.24 14 L 39.14 14 Q 38.916 14 38.654 13.881 A 1.904 1.904 0 0 1 38.57 13.84 Q 38.26 13.68 38.04 13.4 Q 37.591 13.985 36.857 14 A 1.899 1.899 0 0 1 36.82 14 Z M 58.42 14 L 56.64 14 A 5.994 5.994 0 0 1 55.852 13.952 Q 54.926 13.829 54.43 13.39 A 1.767 1.767 0 0 1 53.971 12.72 Q 53.743 12.164 53.74 11.326 A 6.305 6.305 0 0 1 53.74 11.3 L 53.74 10.9 Q 53.74 8.263 55.853 7.869 A 4.41 4.41 0 0 1 56.66 7.8 L 59.14 7.8 L 59.14 6.8 A 1.623 1.623 0 0 0 59.095 6.407 A 1.097 1.097 0 0 0 58.76 5.84 Q 58.456 5.568 57.923 5.514 A 2.782 2.782 0 0 0 57.64 5.5 L 54.54 5.5 L 54.54 4 L 57.44 4 Q 59.18 4 60.01 4.76 A 2.295 2.295 0 0 1 60.606 5.675 Q 60.84 6.308 60.84 7.2 L 60.84 12 A 0.619 0.619 0 0 0 60.867 12.189 A 0.479 0.479 0 0 0 61.07 12.45 Q 61.3 12.6 61.84 12.6 L 61.84 14 L 60.74 14 Q 60.516 14 60.254 13.881 A 1.904 1.904 0 0 1 60.17 13.84 Q 59.86 13.68 59.64 13.4 Q 59.191 13.985 58.457 14 A 1.899 1.899 0 0 1 58.42 14 Z M 15.94 11.5 L 15.94 9.3 L 13.44 9.3 A 1.302 1.302 0 0 0 13.007 9.37 A 1.122 1.122 0 0 0 12.58 9.64 A 1.148 1.148 0 0 0 12.242 10.419 A 1.528 1.528 0 0 0 12.24 10.5 L 12.24 11.5 A 1.792 1.792 0 0 0 12.259 11.77 Q 12.281 11.913 12.328 12.026 A 0.709 0.709 0 0 0 12.48 12.26 A 0.724 0.724 0 0 0 12.744 12.424 Q 12.858 12.467 13.001 12.485 A 1.845 1.845 0 0 0 13.24 12.5 L 15.02 12.5 A 1.981 1.981 0 0 0 15.273 12.485 Q 15.657 12.435 15.78 12.22 Q 15.913 11.987 15.936 11.643 A 2.209 2.209 0 0 0 15.94 11.5 Z M 37.54 11.5 L 37.54 9.3 L 35.04 9.3 A 1.302 1.302 0 0 0 34.607 9.37 A 1.122 1.122 0 0 0 34.18 9.64 A 1.148 1.148 0 0 0 33.842 10.419 A 1.528 1.528 0 0 0 33.84 10.5 L 33.84 11.5 A 1.792 1.792 0 0 0 33.859 11.77 Q 33.881 11.913 33.928 12.026 A 0.709 0.709 0 0 0 34.08 12.26 A 0.724 0.724 0 0 0 34.344 12.424 Q 34.458 12.467 34.601 12.485 A 1.845 1.845 0 0 0 34.84 12.5 L 36.62 12.5 A 1.981 1.981 0 0 0 36.873 12.485 Q 37.257 12.435 37.38 12.22 Q 37.513 11.987 37.536 11.643 A 2.209 2.209 0 0 0 37.54 11.5 Z M 59.14 11.5 L 59.14 9.3 L 56.64 9.3 A 1.302 1.302 0 0 0 56.207 9.37 A 1.122 1.122 0 0 0 55.78 9.64 A 1.148 1.148 0 0 0 55.442 10.419 A 1.528 1.528 0 0 0 55.44 10.5 L 55.44 11.5 A 1.792 1.792 0 0 0 55.459 11.77 Q 55.481 11.913 55.528 12.026 A 0.709 0.709 0 0 0 55.68 12.26 A 0.724 0.724 0 0 0 55.944 12.424 Q 56.058 12.467 56.201 12.485 A 1.845 1.845 0 0 0 56.44 12.5 L 58.22 12.5 A 1.981 1.981 0 0 0 58.473 12.485 Q 58.857 12.435 58.98 12.22 Q 59.113 11.987 59.136 11.643 A 2.209 2.209 0 0 0 59.14 11.5 Z" vector-effect="non-scaling-stroke"/></g></svg>